<?xml version="1.0" encoding="UTF-8"?>
<svg  viewBox="0 0 123 123" version="1.1" xmlns="http://www.w3.org/2000/svg" xmlns:xlink="http://www.w3.org/1999/xlink">
    <title>logo_bbk</title>
    <defs>
        <polygon id="path-1" points="0 0 123.204 0 123.204 123.264 0 123.264"></polygon>
    </defs>
    <g id="logo_bbk" stroke="none" stroke-width="1" fill="none" fill-rule="evenodd">
        <g id="Group-3" transform="translate(0.060000, -0.264000)">
            <mask id="mask-2" fill="white">
                <use xlink:href="#path-1"></use>
            </mask>
            <g id="Clip-2"></g>
            <polygon id="Fill-1" fill="#CF233C" mask="url(#mask-2)" points="-2.2759572e-15 123.264 123.204 123.264 123.204 0 -2.2759572e-15 0"></polygon>
        </g>
        <path d="M111.694,109.425 L111.694,103.342 C111.694,96.233 107.506,92.677 102.372,92.677 C93.286,92.677 92.419,100.894 92.419,104.132 L92.419,109.425 L111.694,109.425 Z M86.098,109.425 L86.098,104.448 C86.098,100.815 85.149,95.284 77.881,95.284 C70.139,95.284 69.823,100.815 69.823,104.923 L69.823,109.425 L86.098,109.425 Z M63.502,117.326 L63.502,101.605 C63.502,96.312 65.637,87.384 76.46,87.384 C85.465,87.384 87.993,93.31 88.942,95.838 L89.1,95.838 C89.731,91.808 92.575,84.778 103.083,84.778 C116.434,84.778 118.014,95.363 118.014,102.236 L118.014,117.326 L63.502,117.326 L63.502,117.326 Z" id="Fill-4" fill="#FFFFFE"></path>
        <path d="M111.694,71.27 L111.694,65.187 C111.694,58.077 107.506,54.522 102.372,54.522 C93.286,54.522 92.419,62.738 92.419,65.977 L92.419,71.27 L111.694,71.27 Z M86.098,71.27 L86.098,66.293 C86.098,62.659 85.149,57.129 77.881,57.129 C70.139,57.129 69.823,62.659 69.823,66.767 L69.823,71.27 L86.098,71.27 Z M63.502,79.17 L63.502,63.449 C63.502,58.156 65.637,49.229 76.46,49.229 C85.465,49.229 87.993,55.154 88.942,57.682 L89.1,57.682 C89.731,53.653 92.575,46.622 103.083,46.622 C116.434,46.622 118.014,57.208 118.014,64.081 L118.014,79.17 L63.502,79.17 L63.502,79.17 Z" id="Fill-5" fill="#FFFFFE"></path>
        <polyline id="Fill-6" fill="#FFFFFE" points="63.502 41.014 63.502 33.113 87.756 33.113 87.756 32.956 63.502 14.469 63.502 4.989 89.495 24.977 118.014 3.409 118.014 12.968 91.549 32.956 91.549 33.113 118.014 33.113 118.014 41.014 63.502 41.014"></polyline>
    </g>
</svg>