<?xml version="1.0" encoding="UTF-8"?>
<svg width="29px" height="29px" viewBox="0 0 29 29" version="1.1" xmlns="http://www.w3.org/2000/svg" xmlns:xlink="http://www.w3.org/1999/xlink">
    <title>typoStar</title>
    <g id="Page-1" stroke="none" stroke-width="1" fill="none" fill-rule="evenodd">
        <g id="typoStar" fill="#576367" fill-rule="nonzero">
            <path d="M26.2822461,11.7817922 C25.4775213,11.7817922 24.7543496,12.1315952 24.2559278,12.6880043 L18.8765917,12.6880043 L22.6800048,8.8845913 C23.4249265,8.92628826 24.1843357,8.66257739 24.7534417,8.09256348 C25.8155352,7.03047 25.8155352,5.30954696 24.7534417,4.24746609 C23.6913483,3.18537261 21.9704378,3.18537261 20.9083443,4.24746609 C20.3392383,4.81657217 20.0755274,5.5759813 20.1163039,6.32089043 L16.3128909,10.1243035 L16.3128909,4.74498 C16.8693126,4.24746609 17.2191157,3.52429435 17.2191157,2.71866174 C17.2191157,1.21705435 16.0020613,0 14.5004539,0 C12.9988465,0 11.7817884,1.21705435 11.7817884,2.71866174 C11.7817884,3.52338652 12.1315902,4.24655826 12.6880043,4.74498 L12.6880043,10.1243035 L8.88459761,6.32089043 C8.92537791,5.5759813 8.66257361,4.81657217 8.0925597,4.24746609 C7.03046748,3.18537261 5.30955326,3.18537261 4.24746104,4.24746609 C3.18536883,5.30954696 3.18536883,7.03047 4.24746104,8.09256348 C4.81656839,8.66166957 5.57598257,8.92538043 6.32089674,8.8845913 L10.1243085,12.6880043 L4.74497622,12.6880043 C4.24746104,12.1315952 3.52429561,11.7817922 2.71866552,11.7817922 C1.21705573,11.7817922 0,12.9988465 0,14.5004539 C0,16.0020613 1.21705573,17.2191182 2.71866552,17.2191182 C3.5233903,17.2191182 4.24655448,16.8693164 4.74497622,16.3128909 L10.1243085,16.3128909 L6.32089674,20.116309 C5.57598257,20.0746221 4.81656839,20.338333 4.24746104,20.9083469 C3.18536883,21.9704378 3.18536883,23.6913533 4.24746104,24.7534455 C5.30955326,25.8155365 7.03046748,25.8155365 8.0925597,24.7534455 C8.66166704,24.1843382 8.92537791,23.424924 8.88459761,22.6800098 L12.6880043,18.876598 L12.6880043,24.2559291 C12.1315902,24.7534455 11.7817884,25.4766097 11.7817884,26.2813345 C11.7817884,27.7829443 12.9988465,29 14.5004539,29 C16.0020613,29 17.2191157,27.7829443 17.2191157,26.2813345 C17.2191157,25.4766097 16.8693126,24.7534455 16.3128909,24.2550238 L16.3128909,18.8756915 L20.1163039,22.6791033 C20.0746196,23.4240174 20.3383304,24.1834316 20.9083443,24.752539 C21.9704378,25.8146312 23.6913483,25.8146312 24.7534417,24.752539 C25.8155352,23.6904467 25.8155352,21.9695325 24.7534417,20.9074403 C24.1843357,20.338333 23.4249265,20.0746221 22.6800048,20.1154024 L18.8765917,16.3119957 L24.2559278,16.3119957 C24.7534417,16.8684098 25.4766135,17.2182116 26.2813383,17.2182116 C27.7829457,17.2182116 29,16.0011535 29,14.4995461 C29,12.9979387 27.7829457,11.7808843 26.2813383,11.7808843 L26.2822461,11.7817922 Z" id="Fill-2"></path>
        </g>
    </g>
</svg>